<svg id="svg" version="1.1" xmlns="http://www.w3.org/2000/svg" xmlns:xlink="http://www.w3.org/1999/xlink" width="400" height="449.6666666666667" viewBox="0, 0, 400,449.6666666666667"><g id="svgg"><path id="path0" d="M189.583 0.506 C 188.896 0.759,188.333 0.880,188.333 0.775 C 188.333 0.671,188.108 0.772,187.833 1.000 C 187.558 1.228,187.333 1.303,187.333 1.167 C 187.333 1.030,187.085 1.124,186.782 1.376 C 186.479 1.627,186.177 1.793,186.112 1.743 C 186.047 1.694,185.546 1.884,185.000 2.167 C 184.454 2.449,183.968 2.655,183.920 2.624 C 183.748 2.513,180.865 4.088,180.414 4.539 C 180.160 4.792,179.749 5.000,179.500 5.000 C 179.251 5.000,178.849 5.187,178.607 5.417 C 178.365 5.646,177.717 6.056,177.167 6.327 C 176.617 6.599,175.610 7.177,174.929 7.613 C 173.687 8.409,172.217 9.250,170.667 10.054 C 170.208 10.292,169.758 10.565,169.667 10.660 C 169.575 10.756,169.050 11.055,168.500 11.324 C 167.950 11.593,166.900 12.209,166.167 12.694 C 165.433 13.179,164.496 13.681,164.083 13.810 C 163.671 13.939,163.333 14.167,163.333 14.315 C 163.333 14.464,162.846 14.783,162.250 15.024 C 161.654 15.265,161.092 15.546,161.000 15.648 C 160.908 15.750,160.021 16.260,159.029 16.781 C 158.036 17.302,157.013 17.939,156.755 18.197 C 156.497 18.456,156.082 18.667,155.833 18.667 C 155.585 18.667,155.183 18.854,154.940 19.083 C 154.698 19.313,153.900 19.818,153.167 20.208 C 150.496 21.625,148.490 22.814,148.060 23.236 C 147.817 23.473,147.415 23.667,147.167 23.667 C 146.918 23.667,146.516 23.854,146.274 24.083 C 146.032 24.313,145.383 24.722,144.833 24.994 C 144.283 25.265,143.277 25.844,142.596 26.280 C 141.353 27.075,139.883 27.917,138.333 28.721 C 137.875 28.959,137.425 29.232,137.333 29.328 C 137.242 29.425,136.304 29.947,135.250 30.489 C 134.196 31.031,133.333 31.581,133.333 31.711 C 133.333 31.842,132.808 32.122,132.167 32.333 C 131.525 32.545,131.000 32.839,131.000 32.985 C 131.000 33.132,130.512 33.450,129.917 33.691 C 129.321 33.932,128.758 34.213,128.667 34.316 C 128.575 34.419,127.638 34.947,126.583 35.489 C 125.529 36.031,124.667 36.581,124.667 36.711 C 124.667 36.842,124.142 37.122,123.500 37.333 C 122.858 37.545,122.333 37.820,122.333 37.944 C 122.333 38.069,121.846 38.382,121.250 38.640 C 120.654 38.898,119.567 39.514,118.833 40.009 C 118.100 40.504,117.162 41.014,116.750 41.143 C 116.338 41.273,116.000 41.507,116.000 41.663 C 116.000 41.820,115.475 42.122,114.833 42.333 C 114.192 42.545,113.667 42.820,113.667 42.944 C 113.667 43.069,113.179 43.382,112.583 43.640 C 111.987 43.898,110.900 44.514,110.167 45.009 C 109.433 45.504,108.496 46.014,108.083 46.143 C 107.671 46.273,107.333 46.500,107.333 46.649 C 107.333 46.797,106.846 47.116,106.250 47.357 C 105.654 47.598,105.092 47.880,105.000 47.983 C 104.908 48.086,103.971 48.614,102.917 49.156 C 101.862 49.697,101.000 50.247,101.000 50.378 C 101.000 50.508,100.475 50.788,99.833 51.000 C 99.192 51.212,98.667 51.505,98.667 51.652 C 98.667 51.799,98.179 52.116,97.583 52.357 C 96.987 52.598,96.425 52.880,96.333 52.983 C 96.242 53.086,95.304 53.614,94.250 54.156 C 93.196 54.697,92.333 55.247,92.333 55.378 C 92.333 55.508,91.808 55.788,91.167 56.000 C 90.525 56.212,90.000 56.487,90.000 56.611 C 90.000 56.736,89.512 57.048,88.917 57.306 C 88.321 57.564,87.233 58.170,86.500 58.652 C 85.767 59.134,84.792 59.717,84.333 59.947 C 82.638 60.799,81.495 61.442,81.333 61.635 C 81.242 61.745,80.717 62.055,80.167 62.324 C 79.617 62.593,78.567 63.209,77.833 63.694 C 77.100 64.179,76.162 64.681,75.750 64.810 C 75.338 64.939,75.000 65.167,75.000 65.315 C 75.000 65.464,74.512 65.783,73.917 66.024 C 73.321 66.265,72.758 66.546,72.667 66.650 C 72.575 66.753,71.638 67.280,70.583 67.822 C 69.529 68.364,68.667 68.914,68.667 69.045 C 68.667 69.175,68.142 69.455,67.500 69.667 C 66.858 69.878,66.333 70.172,66.333 70.319 C 66.333 70.466,65.846 70.783,65.250 71.024 C 64.654 71.265,64.092 71.547,64.000 71.650 C 63.908 71.754,63.008 72.278,62.000 72.816 C 60.992 73.354,59.968 73.990,59.726 74.230 C 59.484 74.470,59.082 74.667,58.833 74.667 C 58.585 74.667,58.183 74.854,57.940 75.083 C 57.698 75.313,57.050 75.722,56.500 75.994 C 55.950 76.265,54.943 76.844,54.263 77.280 C 53.020 78.075,51.550 78.917,50.000 79.721 C 49.542 79.959,49.092 80.231,49.000 80.327 C 48.908 80.423,48.383 80.721,47.833 80.990 C 47.283 81.259,46.233 81.876,45.500 82.361 C 44.767 82.845,43.829 83.348,43.417 83.477 C 43.004 83.606,42.667 83.833,42.667 83.982 C 42.667 84.131,42.179 84.450,41.583 84.691 C 40.987 84.932,40.425 85.213,40.333 85.316 C 40.242 85.419,39.304 85.947,38.250 86.489 C 37.196 87.031,36.333 87.581,36.333 87.711 C 36.333 87.842,35.808 88.122,35.167 88.333 C 34.525 88.545,34.000 88.820,34.000 88.944 C 34.000 89.069,33.512 89.383,32.917 89.642 C 32.321 89.901,31.758 90.201,31.667 90.309 C 31.575 90.417,30.675 90.945,29.667 91.483 C 28.658 92.020,27.635 92.657,27.393 92.897 C 27.151 93.137,26.749 93.333,26.500 93.333 C 26.251 93.333,25.849 93.521,25.607 93.750 C 25.365 93.979,24.717 94.387,24.167 94.656 C 23.617 94.926,22.567 95.532,21.833 96.004 C 21.100 96.476,20.125 97.053,19.667 97.287 C 17.231 98.527,16.652 98.915,12.000 102.425 C 10.506 103.552,9.405 104.667,9.785 104.667 C 9.895 104.667,9.238 105.449,8.326 106.406 C 7.413 107.363,6.667 108.338,6.667 108.573 C 6.667 108.808,6.517 109.000,6.333 109.000 C 6.150 109.000,6.000 109.147,6.000 109.327 C 6.000 109.507,5.475 110.474,4.833 111.478 C 4.192 112.481,3.667 113.459,3.667 113.651 C 3.667 113.843,3.517 114.000,3.333 114.000 C 3.150 114.000,3.023 114.112,3.052 114.250 C 3.080 114.387,2.801 115.175,2.430 116.000 C 1.723 117.576,1.272 118.664,1.154 119.083 C 1.115 119.221,1.052 119.371,1.014 119.417 C 0.976 119.462,0.873 119.946,0.784 120.492 C 0.696 121.037,0.484 121.652,0.312 121.859 C -0.040 122.283,0.033 327.738,0.386 328.852 C 0.506 329.228,0.835 330.091,1.118 330.768 C 1.401 331.446,1.573 332.000,1.501 332.000 C 1.429 332.000,1.886 333.046,2.518 334.324 C 3.150 335.602,3.667 336.793,3.667 336.971 C 3.667 337.149,3.812 337.384,3.990 337.494 C 4.168 337.604,19.956 328.660,39.074 317.618 C 58.191 306.576,76.008 296.289,78.667 294.759 C 81.859 292.922,83.754 292.022,84.248 292.109 L 84.997 292.240 84.220 291.521 C 83.225 290.598,77.863 279.756,75.721 274.333 C 47.652 203.294,84.573 123.402,156.965 98.532 C 215.205 78.525,280.265 101.650,313.312 154.106 C 314.424 155.871,315.333 157.562,315.333 157.865 C 315.333 158.277,315.441 158.325,315.765 158.057 C 316.002 157.860,333.739 147.580,355.181 135.212 C 396.156 111.577,395.708 111.843,395.148 111.428 C 394.954 111.284,394.598 110.679,394.357 110.083 C 394.116 109.487,393.787 109.000,393.626 109.000 C 393.465 109.000,393.333 108.808,393.333 108.574 C 393.333 108.340,393.071 107.910,392.750 107.620 C 392.429 107.329,391.792 106.589,391.333 105.976 C 389.856 103.998,386.547 100.967,384.984 100.159 C 384.508 99.912,383.925 99.477,383.688 99.192 C 383.451 98.907,383.125 98.756,382.962 98.857 C 382.800 98.957,382.667 98.880,382.667 98.686 C 382.667 98.492,382.506 98.333,382.310 98.333 C 382.114 98.333,381.326 97.910,380.560 97.393 C 379.794 96.876,378.679 96.258,378.083 96.020 C 377.488 95.781,377.000 95.445,377.000 95.273 C 377.000 95.101,376.850 95.053,376.667 95.167 C 376.483 95.280,376.333 95.214,376.333 95.020 C 376.333 94.826,376.131 94.667,375.884 94.667 C 375.637 94.667,375.089 94.367,374.667 94.000 C 374.244 93.633,373.696 93.333,373.449 93.333 C 373.202 93.333,373.000 93.183,373.000 93.000 C 373.000 92.817,372.700 92.667,372.333 92.667 C 371.967 92.667,371.667 92.517,371.667 92.333 C 371.667 92.150,371.442 92.000,371.167 92.000 C 370.892 92.000,370.667 91.880,370.667 91.734 C 370.667 91.587,370.142 91.277,369.500 91.045 C 368.858 90.813,368.333 90.495,368.333 90.338 C 368.333 90.180,367.808 89.878,367.167 89.667 C 366.525 89.455,366.000 89.175,366.000 89.045 C 366.000 88.914,365.137 88.364,364.083 87.822 C 363.029 87.280,362.092 86.753,362.000 86.650 C 361.908 86.546,361.346 86.265,360.750 86.024 C 360.154 85.783,359.667 85.464,359.667 85.315 C 359.667 85.167,359.329 84.939,358.917 84.810 C 358.504 84.681,357.567 84.170,356.833 83.675 C 356.100 83.180,355.012 82.564,354.417 82.306 C 353.821 82.048,353.333 81.715,353.333 81.566 C 353.333 81.416,353.183 81.387,353.000 81.500 C 352.817 81.613,352.667 81.547,352.667 81.353 C 352.667 81.159,352.465 81.000,352.218 81.000 C 351.971 81.000,351.423 80.700,351.000 80.333 C 350.577 79.967,350.094 79.667,349.926 79.667 C 349.758 79.667,348.993 79.244,348.227 78.727 C 347.460 78.210,346.346 77.592,345.750 77.353 C 345.154 77.114,344.667 76.778,344.667 76.607 C 344.667 76.435,344.517 76.387,344.333 76.500 C 344.150 76.613,344.000 76.547,344.000 76.353 C 344.000 76.159,343.798 76.000,343.551 76.000 C 343.304 76.000,342.756 75.700,342.333 75.333 C 341.911 74.967,341.363 74.667,341.116 74.667 C 340.869 74.667,340.667 74.517,340.667 74.333 C 340.667 74.150,340.367 74.000,340.000 74.000 C 339.633 74.000,339.333 73.850,339.333 73.667 C 339.333 73.483,339.108 73.333,338.833 73.333 C 338.558 73.333,338.333 73.213,338.333 73.067 C 338.333 72.920,337.808 72.611,337.167 72.379 C 336.525 72.147,336.000 71.828,336.000 71.671 C 336.000 71.514,335.475 71.212,334.833 71.000 C 334.192 70.788,333.667 70.508,333.667 70.378 C 333.667 70.247,332.804 69.697,331.750 69.156 C 330.696 68.614,329.758 68.086,329.667 67.983 C 329.575 67.880,329.012 67.598,328.417 67.357 C 327.821 67.116,327.333 66.797,327.333 66.649 C 327.333 66.500,326.996 66.273,326.583 66.143 C 326.171 66.014,325.233 65.506,324.500 65.014 C 323.767 64.523,322.679 63.925,322.083 63.686 C 321.487 63.448,321.000 63.112,321.000 62.940 C 321.000 62.768,320.850 62.720,320.667 62.833 C 320.483 62.947,320.333 62.880,320.333 62.686 C 320.333 62.492,320.131 62.333,319.884 62.333 C 319.637 62.333,319.089 62.033,318.667 61.667 C 318.244 61.300,317.760 61.000,317.592 61.000 C 317.424 61.000,316.660 60.577,315.893 60.060 C 315.127 59.543,314.012 58.925,313.417 58.686 C 312.821 58.448,312.333 58.132,312.333 57.985 C 312.333 57.839,311.808 57.545,311.167 57.333 C 310.525 57.122,310.000 56.813,310.000 56.647 C 310.000 56.482,309.625 56.252,309.167 56.137 C 308.708 56.022,308.333 55.822,308.333 55.693 C 308.333 55.564,307.808 55.252,307.167 55.000 C 306.525 54.748,306.000 54.436,306.000 54.307 C 306.000 54.178,305.653 53.985,305.228 53.879 C 304.804 53.772,304.106 53.381,303.677 53.009 C 303.249 52.637,302.725 52.333,302.514 52.333 C 302.302 52.333,301.613 51.950,300.981 51.481 C 300.350 51.012,299.308 50.382,298.667 50.081 C 298.025 49.781,297.425 49.443,297.333 49.332 C 297.242 49.220,296.679 48.932,296.083 48.691 C 295.487 48.450,295.000 48.131,295.000 47.982 C 295.000 47.833,294.662 47.606,294.250 47.477 C 293.837 47.348,292.900 46.840,292.167 46.348 C 291.433 45.856,290.346 45.258,289.750 45.020 C 289.154 44.781,288.667 44.445,288.667 44.273 C 288.667 44.101,288.517 44.053,288.333 44.167 C 288.150 44.280,288.000 44.214,288.000 44.020 C 288.000 43.826,287.798 43.667,287.551 43.667 C 287.304 43.667,286.756 43.367,286.333 43.000 C 285.911 42.633,285.363 42.333,285.116 42.333 C 284.869 42.333,284.667 42.183,284.667 42.000 C 284.667 41.817,284.367 41.667,284.000 41.667 C 283.633 41.667,283.333 41.517,283.333 41.333 C 283.333 41.150,283.108 41.000,282.833 41.000 C 282.558 41.000,282.333 40.866,282.333 40.703 C 282.333 40.539,281.986 40.318,281.561 40.212 C 281.137 40.105,280.439 39.714,280.010 39.342 C 279.582 38.971,279.052 38.667,278.833 38.667 C 278.614 38.667,278.089 38.367,277.667 38.000 C 277.244 37.633,276.696 37.333,276.449 37.333 C 276.202 37.333,276.000 37.211,276.000 37.062 C 276.000 36.913,275.475 36.585,274.833 36.333 C 274.192 36.082,273.667 35.770,273.667 35.641 C 273.667 35.511,273.319 35.318,272.895 35.212 C 272.470 35.105,271.772 34.714,271.344 34.342 C 270.915 33.971,270.392 33.667,270.180 33.667 C 269.969 33.667,269.280 33.283,268.648 32.814 C 268.017 32.345,266.975 31.715,266.333 31.415 C 265.692 31.114,265.092 30.777,265.000 30.665 C 264.908 30.553,264.346 30.265,263.750 30.024 C 263.154 29.783,262.667 29.464,262.667 29.315 C 262.667 29.167,262.329 28.939,261.917 28.810 C 261.504 28.681,260.567 28.173,259.833 27.681 C 259.100 27.189,258.012 26.592,257.417 26.353 C 256.821 26.114,256.333 25.778,256.333 25.607 C 256.333 25.435,256.183 25.387,256.000 25.500 C 255.817 25.613,255.667 25.547,255.667 25.353 C 255.667 25.159,255.465 25.000,255.218 25.000 C 254.971 25.000,254.423 24.700,254.000 24.333 C 253.577 23.967,253.029 23.667,252.782 23.667 C 252.535 23.667,252.333 23.517,252.333 23.333 C 252.333 23.150,252.033 23.000,251.667 23.000 C 251.300 23.000,251.000 22.850,251.000 22.667 C 251.000 22.483,250.775 22.333,250.500 22.333 C 250.225 22.333,250.000 22.213,250.000 22.067 C 250.000 21.920,249.475 21.611,248.833 21.379 C 248.192 21.147,247.667 20.828,247.667 20.671 C 247.667 20.514,247.142 20.212,246.500 20.000 C 245.858 19.788,245.333 19.508,245.333 19.378 C 245.333 19.247,244.471 18.697,243.417 18.156 C 242.362 17.614,241.425 17.086,241.333 16.983 C 241.242 16.880,240.679 16.598,240.083 16.357 C 239.487 16.116,239.000 15.802,239.000 15.659 C 239.000 15.516,238.550 15.242,238.001 15.050 C 237.451 14.859,236.514 14.349,235.918 13.917 C 235.321 13.486,234.383 12.916,233.833 12.650 C 233.283 12.385,232.723 12.017,232.588 11.834 C 232.454 11.650,232.341 11.625,232.338 11.779 C 232.336 11.932,231.704 11.595,230.934 11.029 C 230.165 10.463,229.404 10.000,229.244 10.000 C 229.084 10.000,228.326 9.577,227.560 9.060 C 226.794 8.543,225.679 7.925,225.083 7.686 C 224.487 7.448,224.000 7.112,224.000 6.940 C 224.000 6.768,223.850 6.720,223.667 6.833 C 223.483 6.947,223.333 6.880,223.333 6.686 C 223.333 6.492,223.131 6.333,222.884 6.333 C 222.637 6.333,222.089 6.033,221.667 5.667 C 221.244 5.300,220.696 5.000,220.449 5.000 C 220.202 5.000,220.000 4.850,220.000 4.667 C 220.000 4.483,219.700 4.333,219.333 4.333 C 218.967 4.333,218.667 4.193,218.667 4.022 C 218.667 3.851,218.329 3.606,217.917 3.478 C 217.504 3.349,217.077 3.104,216.967 2.933 C 216.857 2.762,216.557 2.588,216.300 2.545 C 216.043 2.503,215.516 2.293,215.127 2.079 C 214.739 1.865,214.326 1.785,214.210 1.901 C 214.095 2.016,214.000 1.911,214.000 1.667 C 214.000 1.422,213.901 1.321,213.781 1.442 C 213.660 1.562,213.360 1.494,213.114 1.290 C 212.868 1.085,212.667 1.030,212.667 1.167 C 212.667 1.303,212.442 1.228,212.167 1.000 C 211.892 0.772,211.667 0.664,211.667 0.760 C 211.667 0.856,210.968 0.724,210.114 0.467 C 207.923 -0.192,191.399 -0.161,189.583 0.506 M194.659 159.023 C 148.234 162.874,120.178 212.020,140.441 254.000 C 141.370 255.925,142.236 257.800,142.365 258.167 C 142.520 258.607,142.612 258.661,142.633 258.326 C 142.654 258.019,153.790 251.404,170.917 241.527 C 249.751 196.059,256.191 192.350,257.285 191.771 C 257.350 191.737,256.588 190.462,255.591 188.938 C 242.330 168.649,218.668 157.032,194.659 159.023 M303.888 202.910 C 303.801 203.051,306.965 203.123,310.920 203.070 C 316.497 202.996,318.179 203.071,318.414 203.404 C 318.647 203.733,318.686 203.717,318.581 203.333 C 318.432 202.787,304.219 202.377,303.888 202.910 M362.917 202.916 C 364.979 202.974,368.354 202.974,370.417 202.916 C 372.479 202.857,370.792 202.809,366.667 202.809 C 362.542 202.809,360.854 202.857,362.917 202.916 M359.076 210.222 C 359.019 215.496,358.895 217.320,358.583 217.446 C 358.257 217.578,358.259 217.620,358.594 217.640 C 359.301 217.684,359.352 217.091,359.250 209.991 L 359.152 203.167 359.076 210.222 M374.156 210.306 C 374.165 216.363,374.242 217.466,374.667 217.581 C 375.030 217.680,375.054 217.638,374.757 217.427 C 374.461 217.217,374.319 215.197,374.246 210.151 L 374.146 203.167 374.156 210.306 M288.816 218.092 C 288.726 218.326,288.693 221.589,288.744 225.342 L 288.835 232.167 289.001 224.916 C 289.163 217.814,289.147 217.228,288.816 218.092 M344.623 232.424 C 344.765 232.565,348.020 232.640,351.857 232.590 L 358.833 232.499 351.599 232.333 C 347.621 232.241,344.481 232.282,344.623 232.424 M381.667 232.333 L 374.500 232.520 381.564 232.593 C 385.994 232.639,388.704 232.542,388.833 232.333 C 388.947 232.150,388.993 232.033,388.936 232.073 C 388.880 232.114,385.608 232.231,381.667 232.333 M291.333 232.564 C 297.483 232.802,303.591 232.812,303.449 232.583 C 303.364 232.446,300.040 232.364,296.064 232.400 C 292.087 232.437,289.958 232.511,291.333 232.564 M318.884 232.583 C 318.799 232.721,320.852 232.794,323.448 232.747 C 332.278 232.585,333.181 232.468,326.103 232.400 C 322.218 232.364,318.969 232.446,318.884 232.583 M359.067 239.897 C 359.030 243.782,359.113 247.031,359.250 247.116 C 359.387 247.201,359.461 245.148,359.414 242.552 C 359.252 233.722,359.134 232.819,359.067 239.897 M373.999 240.067 C 373.908 244.046,373.949 247.185,374.090 247.044 C 374.232 246.902,374.306 243.647,374.256 239.810 L 374.165 232.833 373.999 240.067 M246.982 272.250 L 245.833 273.500 247.083 272.351 C 248.247 271.282,248.487 271.000,248.232 271.000 C 248.176 271.000,247.614 271.563,246.982 272.250 M294.146 319.417 L 293.167 320.500 294.250 319.521 C 294.846 318.983,295.333 318.495,295.333 318.438 C 295.333 318.180,295.058 318.407,294.146 319.417 M109.333 322.771 C 109.333 322.828,109.821 323.316,110.417 323.854 L 111.500 324.833 110.521 323.750 C 109.608 322.740,109.333 322.513,109.333 322.771 M191.417 358.230 C 191.737 358.314,192.262 358.314,192.583 358.230 C 192.904 358.146,192.642 358.077,192.000 358.077 C 191.358 358.077,191.096 358.146,191.417 358.230 M207.254 358.236 C 207.669 358.315,208.269 358.312,208.587 358.229 C 208.906 358.146,208.567 358.080,207.833 358.084 C 207.100 358.088,206.839 358.156,207.254 358.236 " stroke="none" fill="#649cd3" fill-rule="evenodd"></path><path id="path1" d="M187.129 92.490 C 99.655 101.566,44.790 189.703,75.386 272.000 C 77.237 276.979,82.565 288.198,84.516 291.225 C 96.066 309.143,104.222 318.610,116.833 328.741 C 176.065 376.323,262.900 364.534,307.842 302.810 C 312.046 297.036,314.855 292.366,314.471 291.787 C 314.161 291.319,258.498 259.000,258.002 259.000 C 257.852 259.000,257.354 259.642,256.894 260.426 C 243.979 282.465,214.680 295.773,189.167 291.189 C 130.306 280.616,112.938 205.413,161.333 170.676 C 191.615 148.940,234.733 156.761,255.355 187.730 C 256.492 189.437,257.529 190.953,257.659 191.098 C 257.861 191.324,313.961 159.153,314.795 158.334 C 315.164 157.971,314.078 156.083,310.253 150.436 C 283.145 110.420,234.586 87.567,187.129 92.490 M303.923 210.577 L 303.833 217.833 296.583 217.923 L 289.333 218.013 289.333 225.007 L 289.333 232.000 296.293 232.000 C 301.670 232.000,303.335 232.101,303.619 232.442 C 303.854 232.725,304.019 235.401,304.076 239.859 L 304.167 246.833 311.167 246.833 L 318.167 246.833 318.257 239.682 C 318.323 234.472,318.458 232.460,318.757 232.271 C 318.982 232.127,322.279 232.008,326.083 232.005 L 333.000 232.000 333.000 225.007 L 333.000 218.013 325.750 217.923 L 318.500 217.833 318.333 210.667 L 318.167 203.500 311.090 203.410 L 304.013 203.320 303.923 210.577 M359.667 210.293 C 359.667 215.670,359.566 217.335,359.224 217.619 C 358.941 217.854,356.266 218.019,351.808 218.076 L 344.833 218.167 344.833 225.000 L 344.833 231.833 351.833 232.000 C 355.683 232.092,359.021 232.288,359.250 232.436 C 359.562 232.638,359.667 234.501,359.667 239.853 L 359.667 247.000 366.667 247.000 L 373.667 247.000 373.667 239.853 C 373.667 234.501,373.771 232.638,374.083 232.436 C 374.313 232.288,377.650 232.092,381.500 232.000 L 388.500 231.833 388.500 225.000 L 388.500 218.167 381.526 218.076 C 377.067 218.019,374.392 217.854,374.109 217.619 C 373.767 217.335,373.667 215.670,373.667 210.293 L 373.667 203.333 366.667 203.333 L 359.667 203.333 359.667 210.293 " stroke="none" fill="#fbfbfb" fill-rule="evenodd"></path><path id="path2" d="M394.327 113.109 C 393.689 113.536,385.742 118.167,376.667 123.401 C 327.321 151.857,317.017 157.826,315.500 158.836 C 313.463 160.191,258.968 191.630,257.333 192.393 C 256.692 192.692,243.417 200.285,227.833 209.265 C 212.250 218.246,186.787 232.915,171.250 241.862 C 155.333 251.028,143.000 258.331,143.000 258.590 C 143.000 260.314,151.208 270.410,156.089 274.688 C 186.749 301.564,233.731 294.991,255.909 260.722 C 257.051 258.958,257.869 258.006,258.152 258.115 C 258.837 258.378,315.128 290.997,315.450 291.318 C 316.135 292.000,310.371 301.005,304.739 308.051 C 246.814 380.511,134.031 373.815,86.167 295.074 C 85.251 293.567,84.333 292.333,84.127 292.333 C 83.922 292.333,67.871 301.502,48.460 312.708 C 29.049 323.914,11.244 334.192,8.895 335.547 C 6.545 336.903,4.466 337.915,4.274 337.796 C 3.862 337.542,5.979 340.917,7.433 342.833 C 8.960 344.846,12.312 348.241,14.000 349.484 C 15.661 350.707,180.213 445.781,183.667 447.514 C 187.819 449.596,188.364 449.667,200.218 449.667 L 210.981 449.667 213.594 448.713 C 215.782 447.915,377.055 355.240,384.667 350.408 C 390.471 346.723,396.915 337.684,399.301 329.882 L 400.000 327.596 400.000 225.025 C 400.000 115.525,400.073 120.921,398.564 118.167 C 398.363 117.800,398.167 117.310,398.128 117.077 C 397.991 116.261,396.032 112.333,395.762 112.333 C 395.611 112.333,394.966 112.683,394.327 113.109 M319.000 209.833 L 319.167 217.167 326.423 217.257 L 333.679 217.346 333.589 225.090 L 333.500 232.833 326.256 232.923 L 319.013 233.013 318.923 240.256 L 318.833 247.500 311.167 247.500 L 303.500 247.500 303.333 240.333 L 303.167 233.167 296.119 233.077 C 290.677 233.007,288.985 232.884,288.695 232.535 C 288.436 232.222,288.348 229.829,288.410 224.791 L 288.500 217.500 295.833 217.333 L 303.167 217.167 303.252 210.167 C 303.299 206.317,303.408 202.976,303.494 202.744 C 303.616 202.415,305.348 202.341,311.242 202.410 L 318.833 202.500 319.000 209.833 M374.286 202.776 C 374.520 203.059,374.685 205.734,374.743 210.192 L 374.833 217.167 382.000 217.333 L 389.167 217.500 389.167 225.167 L 389.167 232.833 381.917 232.923 L 374.667 233.013 374.667 239.813 C 374.667 243.552,374.576 246.849,374.464 247.139 C 374.158 247.937,359.175 247.937,358.869 247.139 C 358.758 246.849,358.667 243.552,358.667 239.813 L 358.667 233.013 351.417 232.923 L 344.167 232.833 344.167 225.167 L 344.167 217.500 351.333 217.333 L 358.500 217.167 358.590 210.192 C 358.648 205.734,358.813 203.059,359.048 202.776 C 359.332 202.433,361.046 202.333,366.667 202.333 C 372.287 202.333,374.001 202.433,374.286 202.776 " stroke="none" fill="#044d8d" fill-rule="evenodd"></path><path id="path3" d="M192.500 91.550 C 178.411 92.660,168.244 94.658,156.965 98.532 C 84.573 123.402,47.652 203.294,75.721 274.333 C 77.773 279.528,83.202 290.568,84.154 291.484 C 84.544 291.859,85.740 293.592,86.812 295.333 C 101.467 319.153,124.849 338.688,151.064 349.012 C 155.427 350.731,162.185 353.014,162.811 352.982 C 163.007 352.971,160.842 352.169,158.000 351.199 C 126.363 340.399,104.948 322.921,84.516 291.225 C 71.844 271.567,64.694 238.225,67.492 211.833 C 79.340 100.053,214.855 51.821,294.183 131.150 C 303.203 140.170,316.044 157.106,314.795 158.334 C 313.961 159.153,257.861 191.324,257.659 191.098 C 257.529 190.953,256.492 189.437,255.355 187.730 C 234.733 156.761,191.615 148.940,161.333 170.676 C 121.936 198.954,124.497 258.035,166.194 282.843 C 169.557 284.843,176.882 288.229,177.187 287.924 C 177.260 287.851,176.085 287.297,174.576 286.691 C 161.916 281.611,145.904 267.550,142.491 258.516 C 142.280 257.957,141.353 255.925,140.430 254.000 C 125.801 223.486,135.889 187.719,164.333 169.252 C 194.505 149.664,235.728 158.548,255.578 188.917 C 256.566 190.429,257.506 191.667,257.665 191.667 C 257.825 191.667,268.353 185.654,281.061 178.305 C 293.769 170.956,306.678 163.494,309.747 161.722 C 316.257 157.963,316.037 158.432,313.312 154.106 C 287.564 113.236,238.661 87.915,192.500 91.550 M303.825 203.417 C 303.740 203.646,303.632 206.908,303.585 210.667 L 303.500 217.500 296.333 217.667 L 289.167 217.833 289.077 225.077 L 288.987 232.320 296.244 232.410 L 303.500 232.500 303.667 239.833 L 303.833 247.167 310.870 247.256 C 316.448 247.328,317.985 247.253,318.280 246.897 C 318.522 246.606,318.685 243.995,318.743 239.474 L 318.833 232.500 326.090 232.410 L 333.346 232.320 333.256 225.077 L 333.167 217.833 325.917 217.743 L 318.667 217.654 318.667 210.854 C 318.667 207.114,318.576 203.817,318.464 203.527 C 318.195 202.826,304.083 202.719,303.825 203.417 M359.257 210.250 L 359.167 217.500 351.833 217.667 L 344.500 217.833 344.500 225.000 L 344.500 232.167 351.548 232.257 C 356.857 232.324,358.685 232.454,358.958 232.782 C 359.186 233.057,359.353 235.799,359.410 240.192 L 359.500 247.167 366.667 247.167 L 373.833 247.167 373.924 240.192 C 373.980 235.799,374.148 233.057,374.376 232.782 C 374.648 232.454,376.477 232.324,381.785 232.257 L 388.833 232.167 388.833 225.000 L 388.833 217.833 381.500 217.667 L 374.167 217.500 374.077 210.250 L 373.987 203.000 366.667 203.000 L 359.346 203.000 359.257 210.250 M318.333 210.667 L 318.500 217.833 325.750 217.923 L 333.000 218.013 333.000 225.007 L 333.000 232.000 326.083 232.005 C 322.279 232.008,318.982 232.127,318.757 232.271 C 318.458 232.460,318.323 234.472,318.257 239.682 L 318.167 246.833 311.167 246.833 L 304.167 246.833 304.076 239.859 C 304.019 235.401,303.854 232.725,303.619 232.442 C 303.335 232.101,301.670 232.000,296.293 232.000 L 289.333 232.000 289.333 225.007 L 289.333 218.013 296.583 217.923 L 303.833 217.833 303.923 210.577 L 304.013 203.320 311.090 203.410 L 318.167 203.500 318.333 210.667 M373.667 210.293 C 373.667 215.670,373.767 217.335,374.109 217.619 C 374.392 217.854,377.067 218.019,381.526 218.076 L 388.500 218.167 388.500 225.000 L 388.500 231.833 381.500 232.000 C 377.650 232.092,374.313 232.288,374.083 232.436 C 373.771 232.638,373.667 234.501,373.667 239.853 L 373.667 247.000 366.667 247.000 L 359.667 247.000 359.667 239.853 C 359.667 234.501,359.562 232.638,359.250 232.436 C 359.021 232.288,355.683 232.092,351.833 232.000 L 344.833 231.833 344.833 225.000 L 344.833 218.167 351.808 218.076 C 356.266 218.019,358.941 217.854,359.224 217.619 C 359.566 217.335,359.667 215.670,359.667 210.293 L 359.667 203.333 366.667 203.333 L 373.667 203.333 373.667 210.293 M256.137 261.083 C 248.976 272.162,238.232 281.245,226.429 286.200 C 221.695 288.188,221.253 288.397,222.333 288.135 C 233.284 285.479,250.111 272.001,256.864 260.477 C 257.341 259.665,257.852 259.000,258.002 259.000 C 258.498 259.000,314.161 291.319,314.471 291.787 C 314.855 292.366,312.046 297.036,307.842 302.810 C 291.013 325.923,267.158 343.221,240.424 351.696 C 239.099 352.116,238.077 352.522,238.153 352.597 C 238.594 353.038,251.205 348.211,257.500 345.192 C 280.882 333.979,302.797 314.081,314.300 293.618 L 315.358 291.736 314.262 291.069 C 310.174 288.582,258.221 258.667,257.989 258.667 C 257.830 258.667,256.996 259.754,256.137 261.083 M177.667 288.153 C 177.667 288.348,181.941 289.676,182.452 289.640 C 182.662 289.625,181.708 289.253,180.333 288.813 C 177.512 287.910,177.667 287.948,177.667 288.153 M217.667 289.355 C 216.484 289.757,216.243 289.908,216.988 289.780 C 218.341 289.548,220.730 288.709,220.000 288.723 C 219.725 288.728,218.675 289.012,217.667 289.355 M183.500 289.963 C 183.867 290.120,184.842 290.339,185.667 290.451 C 186.654 290.584,186.882 290.559,186.333 290.378 C 185.089 289.968,182.692 289.617,183.500 289.963 M213.667 290.333 C 213.007 290.545,212.972 290.600,213.500 290.600 C 213.867 290.600,214.542 290.480,215.000 290.333 C 215.660 290.122,215.695 290.066,215.167 290.066 C 214.800 290.066,214.125 290.187,213.667 290.333 M187.377 290.821 C 188.472 291.916,204.229 292.269,210.096 291.331 C 214.039 290.700,212.941 290.578,208.528 291.156 C 203.630 291.798,196.268 291.801,191.500 291.163 C 187.456 290.622,187.152 290.596,187.377 290.821 M232.682 353.862 C 228.002 355.111,221.033 356.436,215.333 357.162 C 211.872 357.603,211.770 357.634,214.278 357.482 C 219.382 357.172,233.672 354.381,237.000 353.044 C 238.530 352.429,236.875 352.743,232.682 353.862 M165.167 353.693 C 166.267 354.040,167.392 354.315,167.667 354.303 C 167.942 354.292,167.192 353.994,166.000 353.642 C 163.216 352.820,162.534 352.861,165.167 353.693 M171.167 355.174 C 172.083 355.410,173.133 355.599,173.500 355.595 C 173.867 355.591,173.417 355.395,172.500 355.159 C 171.583 354.923,170.533 354.734,170.167 354.738 C 169.800 354.742,170.250 354.939,171.167 355.174 M175.167 356.000 C 175.717 356.140,176.542 356.254,177.000 356.254 C 177.743 356.254,177.725 356.227,176.833 356.000 C 176.283 355.860,175.458 355.746,175.000 355.746 C 174.257 355.746,174.275 355.773,175.167 356.000 M180.417 356.896 C 180.737 356.980,181.262 356.980,181.583 356.896 C 181.904 356.813,181.642 356.744,181.000 356.744 C 180.358 356.744,180.096 356.813,180.417 356.896 M183.833 357.349 C 184.750 357.491,186.100 357.600,186.833 357.591 C 187.994 357.575,187.930 357.540,186.333 357.319 C 185.325 357.180,183.975 357.071,183.333 357.078 C 182.398 357.087,182.498 357.141,183.833 357.349 M189.243 357.907 C 189.834 357.981,190.884 357.982,191.576 357.910 C 192.267 357.838,191.783 357.778,190.500 357.776 C 189.217 357.775,188.651 357.834,189.243 357.907 M207.909 357.907 C 208.501 357.981,209.551 357.982,210.243 357.910 C 210.934 357.838,210.450 357.778,209.167 357.776 C 207.883 357.775,207.317 357.834,207.909 357.907 M196.435 358.249 C 198.416 358.308,201.566 358.308,203.435 358.248 C 205.304 358.189,203.683 358.141,199.833 358.141 C 195.983 358.141,194.454 358.190,196.435 358.249 " stroke="none" fill="#9abcde" fill-rule="evenodd"></path><path id="path4" d="M394.667 112.339 C 394.208 112.667,376.583 122.871,355.500 135.016 C 334.417 147.160,316.417 157.654,315.500 158.334 C 314.261 159.254,275.987 181.538,260.003 190.647 C 259.179 191.116,258.041 191.650,257.473 191.833 C 256.905 192.017,243.479 199.650,227.637 208.796 C 211.795 217.942,186.196 232.714,170.750 241.623 C 147.649 254.946,142.674 257.939,142.705 258.493 C 142.733 258.967,142.786 259.011,142.885 258.641 C 142.963 258.351,155.733 250.798,171.263 241.854 C 186.794 232.911,212.250 218.246,227.833 209.265 C 243.417 200.285,256.692 192.692,257.333 192.393 C 258.968 191.630,313.463 160.191,315.500 158.836 C 316.417 158.226,327.742 151.624,340.667 144.165 C 400.223 109.797,396.043 112.250,395.662 111.895 C 395.573 111.812,395.125 112.012,394.667 112.339 M303.494 202.744 C 303.408 202.976,303.299 206.317,303.252 210.167 L 303.167 217.167 295.833 217.333 L 288.500 217.500 288.410 224.791 C 288.348 229.829,288.436 232.222,288.695 232.535 C 288.985 232.884,290.677 233.007,296.119 233.077 L 303.167 233.167 303.333 240.333 L 303.500 247.500 311.167 247.500 L 318.833 247.500 318.923 240.256 L 319.013 233.013 326.256 232.923 L 333.500 232.833 333.589 225.090 L 333.679 217.346 326.423 217.257 L 319.167 217.167 319.000 209.833 L 318.833 202.500 311.242 202.410 C 305.348 202.341,303.616 202.415,303.494 202.744 M359.048 202.776 C 358.813 203.059,358.648 205.734,358.590 210.192 L 358.500 217.167 351.333 217.333 L 344.167 217.500 344.167 225.167 L 344.167 232.833 351.417 232.923 L 358.667 233.013 358.667 239.813 C 358.667 243.552,358.758 246.849,358.869 247.139 C 359.175 247.937,374.158 247.937,374.464 247.139 C 374.576 246.849,374.667 243.552,374.667 239.813 L 374.667 233.013 381.917 232.923 L 389.167 232.833 389.167 225.167 L 389.167 217.500 382.000 217.333 L 374.833 217.167 374.743 210.192 C 374.685 205.734,374.520 203.059,374.286 202.776 C 374.001 202.433,372.287 202.333,366.667 202.333 C 361.046 202.333,359.332 202.433,359.048 202.776 M318.590 209.985 C 318.656 215.195,318.792 217.206,319.090 217.396 C 319.316 217.539,322.615 217.659,326.423 217.662 L 333.346 217.667 333.256 225.083 L 333.167 232.500 326.000 232.667 L 318.833 232.833 318.667 240.000 L 318.500 247.167 311.090 247.256 L 303.680 247.346 303.590 240.090 L 303.500 232.833 296.255 232.744 C 287.633 232.637,288.608 233.706,288.739 224.500 L 288.833 217.833 295.808 217.743 C 300.266 217.685,302.941 217.520,303.224 217.286 C 303.566 217.002,303.667 215.346,303.667 210.015 C 303.667 206.218,303.770 203.008,303.895 202.883 C 304.021 202.757,307.358 202.694,311.312 202.744 L 318.500 202.833 318.590 209.985 M374.131 203.194 C 374.242 203.484,374.333 206.768,374.333 210.492 C 374.333 218.562,373.352 217.667,382.200 217.667 L 389.013 217.667 388.923 225.083 L 388.833 232.500 381.590 232.590 L 374.346 232.680 374.256 239.923 L 374.167 247.167 366.667 247.167 L 359.167 247.167 359.077 239.923 L 358.987 232.680 351.744 232.590 L 344.500 232.500 344.410 225.083 L 344.321 217.667 351.133 217.667 C 359.982 217.667,359.000 218.562,359.000 210.492 C 359.000 206.768,359.091 203.484,359.202 203.194 C 359.508 202.397,373.825 202.397,374.131 203.194 M257.092 258.895 C 256.735 259.411,256.336 260.058,256.206 260.333 C 255.986 260.797,256.269 260.460,257.425 258.879 C 257.901 258.228,315.322 290.941,315.330 291.867 C 315.334 292.359,312.124 297.430,308.760 302.245 C 298.063 317.557,281.492 332.436,265.250 341.315 C 263.829 342.091,262.667 342.802,262.667 342.894 C 262.667 344.094,280.105 332.419,286.333 327.049 C 297.744 317.212,313.596 298.331,315.511 292.299 C 315.818 291.330,318.039 292.698,286.882 274.661 C 254.303 255.800,257.913 257.710,257.092 258.895 M143.173 259.667 C 146.637 266.056,155.068 274.918,162.500 279.982 C 165.707 282.167,171.895 285.672,172.528 285.662 C 172.696 285.659,171.269 284.823,169.358 283.805 C 159.654 278.635,151.336 271.293,145.600 262.833 C 143.661 259.974,142.563 258.542,143.173 259.667 M252.433 265.583 C 248.122 271.130,242.877 276.061,237.421 279.699 C 234.975 281.330,233.516 282.455,234.667 281.823 C 240.696 278.513,248.643 271.221,253.818 264.250 C 255.529 261.945,254.464 262.970,252.433 265.583 M232.917 282.524 C 231.671 283.200,231.746 283.482,233.000 282.833 C 233.550 282.549,234.000 282.245,234.000 282.158 C 234.000 281.944,233.964 281.956,232.917 282.524 M229.333 284.500 C 228.142 285.124,227.283 285.642,227.426 285.650 C 227.781 285.673,231.667 283.697,231.667 283.495 C 231.667 283.271,231.745 283.238,229.333 284.500 M173.667 286.167 C 174.125 286.429,174.650 286.643,174.833 286.643 C 175.017 286.643,174.792 286.429,174.333 286.167 C 173.875 285.905,173.350 285.690,173.167 285.690 C 172.983 285.690,173.208 285.905,173.667 286.167 M225.667 286.167 C 225.208 286.429,224.983 286.643,225.167 286.643 C 225.350 286.643,225.875 286.429,226.333 286.167 C 226.792 285.905,227.017 285.690,226.833 285.690 C 226.650 285.690,226.125 285.905,225.667 286.167 M223.167 287.178 C 222.333 287.580,222.305 287.626,223.000 287.456 C 223.945 287.226,225.006 286.684,224.500 286.692 C 224.317 286.695,223.717 286.913,223.167 287.178 M178.833 288.179 C 179.383 288.431,180.058 288.632,180.333 288.626 C 180.608 288.621,180.308 288.414,179.667 288.167 C 178.145 287.581,177.546 287.589,178.833 288.179 M181.500 289.000 C 181.867 289.158,182.392 289.286,182.667 289.286 C 182.982 289.286,182.920 289.181,182.500 289.000 C 182.133 288.842,181.608 288.714,181.333 288.714 C 181.018 288.714,181.080 288.819,181.500 289.000 M217.500 289.000 C 217.080 289.181,217.018 289.286,217.333 289.286 C 217.608 289.286,218.133 289.158,218.500 289.000 C 218.920 288.819,218.982 288.714,218.667 288.714 C 218.392 288.714,217.867 288.842,217.500 289.000 M186.167 290.174 C 187.083 290.410,188.208 290.602,188.667 290.601 C 189.125 290.599,188.600 290.395,187.500 290.147 C 184.980 289.578,183.932 289.600,186.167 290.174 M212.333 290.167 C 211.325 290.401,210.875 290.594,211.333 290.597 C 211.792 290.600,212.917 290.410,213.833 290.174 C 215.997 289.618,214.726 289.612,212.333 290.167 M190.083 290.896 C 190.404 290.980,190.929 290.980,191.250 290.896 C 191.571 290.813,191.308 290.744,190.667 290.744 C 190.025 290.744,189.762 290.813,190.083 290.896 M208.750 290.896 C 209.071 290.980,209.596 290.980,209.917 290.896 C 210.237 290.813,209.975 290.744,209.333 290.744 C 208.692 290.744,208.429 290.813,208.750 290.896 M193.088 291.239 C 193.595 291.316,194.345 291.314,194.755 291.235 C 195.165 291.156,194.750 291.093,193.833 291.095 C 192.917 291.098,192.581 291.163,193.088 291.239 M205.583 291.235 C 205.996 291.315,206.671 291.315,207.083 291.235 C 207.496 291.156,207.158 291.091,206.333 291.091 C 205.508 291.091,205.171 291.156,205.583 291.235 M198.097 291.581 C 199.342 291.645,201.292 291.645,202.431 291.580 C 203.569 291.515,202.550 291.462,200.167 291.463 C 197.783 291.463,196.852 291.517,198.097 291.581 M77.493 295.448 C 24.389 326.004,4.256 337.700,4.443 337.888 C 4.523 337.967,6.518 336.919,8.877 335.557 C 11.236 334.196,29.049 323.914,48.460 312.708 C 67.871 301.502,83.924 292.333,84.132 292.333 C 84.340 292.333,85.004 293.158,85.607 294.167 C 86.211 295.175,86.783 296.000,86.879 296.000 C 87.037 296.000,86.388 294.838,85.065 292.750 C 84.337 291.601,83.918 291.751,77.493 295.448 M87.523 297.167 C 93.691 307.923,110.178 325.430,121.210 332.938 C 123.076 334.208,122.776 333.957,116.341 328.859 C 108.053 322.293,96.954 310.412,90.615 301.321 C 87.259 296.508,86.761 295.839,87.523 297.167 M123.000 334.165 C 123.000 334.337,128.158 337.810,130.167 338.990 C 132.579 340.407,130.904 339.157,126.917 336.563 C 124.763 335.161,123.000 334.083,123.000 334.165 M131.833 339.913 C 132.017 340.104,133.067 340.751,134.167 341.351 C 135.267 341.951,136.017 342.290,135.833 342.104 C 135.650 341.919,134.600 341.272,133.500 340.667 C 132.400 340.062,131.650 339.723,131.833 339.913 M136.333 342.499 C 136.333 342.720,144.374 346.737,144.521 346.590 C 144.585 346.526,142.769 345.543,140.486 344.405 C 138.202 343.267,136.333 342.410,136.333 342.499 M259.667 344.333 C 258.292 345.049,257.283 345.641,257.425 345.650 C 257.779 345.673,262.333 343.365,262.333 343.162 C 262.333 342.937,262.443 342.889,259.667 344.333 M255.000 346.490 C 254.542 346.747,252.407 347.669,250.256 348.540 C 248.105 349.411,246.403 350.180,246.473 350.250 C 246.625 350.403,253.513 347.607,255.265 346.682 C 255.944 346.323,256.350 346.028,256.167 346.027 C 255.983 346.025,255.458 346.234,255.000 346.490 M146.000 347.333 C 146.642 347.685,147.317 347.972,147.500 347.972 C 147.683 347.972,147.308 347.685,146.667 347.333 C 146.025 346.982,145.350 346.695,145.167 346.695 C 144.983 346.695,145.358 346.982,146.000 347.333 M150.333 349.138 C 150.792 349.383,151.542 349.677,152.000 349.791 C 152.458 349.905,152.233 349.710,151.500 349.357 C 149.992 348.632,149.057 348.457,150.333 349.138 M153.833 350.462 C 154.383 350.713,155.208 351.010,155.667 351.122 C 156.336 351.286,156.303 351.237,155.500 350.871 C 154.950 350.621,154.125 350.324,153.667 350.211 C 152.997 350.047,153.030 350.097,153.833 350.462 M241.333 351.833 C 239.592 352.446,238.326 352.959,238.521 352.974 C 238.934 353.004,244.689 351.089,244.941 350.837 C 245.269 350.509,244.473 350.729,241.333 351.833 M161.167 353.000 C 161.533 353.158,162.058 353.286,162.333 353.286 C 162.648 353.286,162.587 353.181,162.167 353.000 C 161.800 352.842,161.275 352.714,161.000 352.714 C 160.685 352.714,160.746 352.819,161.167 353.000 M236.500 353.333 C 236.080 353.514,236.018 353.620,236.333 353.620 C 236.608 353.620,237.133 353.491,237.500 353.333 C 237.920 353.153,237.982 353.047,237.667 353.047 C 237.392 353.047,236.867 353.176,236.500 353.333 M163.500 353.667 C 163.867 353.824,164.392 353.953,164.667 353.953 C 164.982 353.953,164.920 353.847,164.500 353.667 C 164.133 353.509,163.608 353.380,163.333 353.380 C 163.018 353.380,163.080 353.486,163.500 353.667 M233.500 354.179 C 232.185 354.634,232.183 354.638,233.333 354.444 C 234.693 354.214,236.083 353.707,235.333 353.713 C 235.058 353.716,234.233 353.925,233.500 354.179 M165.833 354.333 C 166.200 354.491,166.800 354.615,167.167 354.610 C 167.703 354.602,167.670 354.548,167.000 354.333 C 165.860 353.968,164.984 353.968,165.833 354.333 M229.333 355.167 C 228.508 355.406,228.058 355.613,228.333 355.628 C 228.608 355.642,229.583 355.445,230.500 355.190 C 231.417 354.935,231.867 354.728,231.500 354.729 C 231.133 354.731,230.158 354.928,229.333 355.167 M173.000 356.000 C 173.458 356.147,174.208 356.264,174.667 356.261 C 175.415 356.255,175.398 356.229,174.500 356.000 C 173.090 355.641,171.880 355.641,173.000 356.000 M179.750 357.230 C 180.071 357.314,180.596 357.314,180.917 357.230 C 181.237 357.146,180.975 357.077,180.333 357.077 C 179.692 357.077,179.429 357.146,179.750 357.230 M217.167 357.333 C 216.033 357.536,215.983 357.576,216.833 357.600 C 217.383 357.616,218.433 357.504,219.167 357.352 C 220.911 356.992,219.168 356.975,217.167 357.333 M182.254 357.569 C 182.669 357.649,183.269 357.646,183.587 357.562 C 183.906 357.479,183.567 357.414,182.833 357.417 C 182.100 357.421,181.839 357.489,182.254 357.569 M184.917 357.902 C 185.329 357.981,186.004 357.981,186.417 357.902 C 186.829 357.822,186.492 357.757,185.667 357.757 C 184.842 357.757,184.504 357.822,184.917 357.902 M213.583 357.902 C 213.996 357.981,214.671 357.981,215.083 357.902 C 215.496 357.822,215.158 357.757,214.333 357.757 C 213.508 357.757,213.171 357.822,213.583 357.902 M188.256 358.242 C 188.855 358.316,189.755 358.314,190.256 358.238 C 190.757 358.162,190.267 358.101,189.167 358.103 C 188.067 358.105,187.657 358.167,188.256 358.242 M209.750 358.239 C 210.254 358.315,211.079 358.315,211.583 358.239 C 212.088 358.162,211.675 358.100,210.667 358.100 C 209.658 358.100,209.246 358.162,209.750 358.239 M195.750 358.582 C 198.088 358.640,201.912 358.640,204.250 358.582 C 206.588 358.525,204.675 358.478,200.000 358.478 C 195.325 358.478,193.412 358.525,195.750 358.582 " stroke="none" fill="#467fb2" fill-rule="evenodd"></path></g></svg>