<svg xmlns="http://www.w3.org/2000/svg" xmlns:xlink="http://www.w3.org/1999/xlink" width="100%" height="100%" version="1.1" viewBox="0 0 34 34" xml:space="preserve" style="fill-rule:evenodd;clip-rule:evenodd;stroke-linecap:round;stroke-linejoin:round;stroke-miterlimit:1.5"><rect id="ferris_worried" width="34" height="34" x="0" y="0" style="fill:none"/><g id="st_outline"><path d="M3,12l0,-3.719c0,-0.308 0.142,-0.599 0.385,-0.788c0.242,-0.19 0.559,-0.257 0.858,-0.182c0.544,0.136 1.177,0.294 1.699,0.425c0.631,0.157 1.291,-0.109 1.636,-0.661c0.42,-0.671 0.984,-1.574 1.392,-2.227c0.141,-0.225 0.365,-0.385 0.623,-0.444c0.259,-0.06 0.53,-0.015 0.755,0.126c0.625,0.391 1.479,0.924 2.14,1.338c0.592,0.37 1.362,0.282 1.856,-0.212c0.596,-0.596 1.386,-1.386 1.949,-1.949c0.39,-0.39 1.024,-0.39 1.414,0c0.563,0.563 1.353,1.353 1.949,1.949c0.494,0.494 1.264,0.582 1.856,0.212c0.661,-0.414 1.515,-0.947 2.14,-1.338c0.225,-0.141 0.496,-0.186 0.755,-0.126c0.258,0.059 0.482,0.219 0.623,0.444l0.97,1.552l0,-2.4c0,-0.552 0.448,-1 1,-1c0.611,0 1.389,0 2,0c0.552,0 1,0.448 1,1l0,3.281c0.221,0 0.438,0.073 0.615,0.212c0.243,0.189 0.385,0.48 0.385,0.788l0,15.719c0,3.866 -3.134,7 -7,7c-1.68,0 -3,0 -3,0l0,-1.158c0,-1.152 0.357,-2.229 0.972,-3.118c-3.291,0.551 -6.653,0.551 -9.944,0c0.615,0.889 0.972,1.966 0.972,3.118l0,1.158c0,0 -1.32,0 -3,0c-3.866,0 -7,-3.134 -7,-7l0,-12Z" style="fill:none;stroke:#fff;stroke-width:4.5px"/></g><g id="Layer1"><path d="M3,12l0,-3.719c0,-0.308 0.142,-0.599 0.385,-0.788c0.242,-0.19 0.559,-0.257 0.858,-0.182c0.544,0.136 1.177,0.294 1.699,0.425c0.631,0.157 1.291,-0.109 1.636,-0.661c0.42,-0.671 0.984,-1.574 1.392,-2.227c0.141,-0.225 0.365,-0.385 0.623,-0.444c0.259,-0.06 0.53,-0.015 0.755,0.126c0.625,0.391 1.479,0.924 2.14,1.338c0.592,0.37 1.362,0.282 1.856,-0.212c0.596,-0.596 1.386,-1.386 1.949,-1.949c0.39,-0.39 1.024,-0.39 1.414,0c0.563,0.563 1.353,1.353 1.949,1.949c0.494,0.494 1.264,0.582 1.856,0.212c0.661,-0.414 1.515,-0.947 2.14,-1.338c0.225,-0.141 0.496,-0.186 0.755,-0.126c0.258,0.059 0.482,0.219 0.623,0.444l0.97,1.552l0,-2.4c0,-0.552 0.448,-1 1,-1c0.611,0 1.389,0 2,0c0.552,0 1,0.448 1,1l0,3.281c0.221,0 0.438,0.073 0.615,0.212c0.243,0.189 0.385,0.48 0.385,0.788l0,15.719c0,3.866 -3.134,7 -7,7c-1.68,0 -3,0 -3,0l0,-1.158c0,-1.152 0.357,-2.229 0.972,-3.118c-3.291,0.551 -6.653,0.551 -9.944,0c0.615,0.889 0.972,1.966 0.972,3.118l0,1.158c0,0 -1.32,0 -3,0c-3.866,0 -7,-3.134 -7,-7l0,-12Z" style="fill:none;stroke:#000;stroke-width:4px"/></g><g id="emoji"><path d="M3,20l0,-11.719c0,-0.308 0.142,-0.599 0.385,-0.788c0.242,-0.19 0.559,-0.257 0.858,-0.182c0.544,0.136 1.177,0.294 1.699,0.425c0.631,0.157 1.291,-0.109 1.636,-0.661c0.42,-0.671 0.984,-1.574 1.392,-2.227c0.141,-0.225 0.365,-0.385 0.623,-0.444c0.259,-0.06 0.53,-0.015 0.755,0.126c0.625,0.391 1.479,0.924 2.14,1.338c0.592,0.37 1.362,0.282 1.856,-0.212c0.596,-0.596 1.386,-1.386 1.949,-1.949c0.39,-0.39 1.024,-0.39 1.414,0c0.563,0.563 1.353,1.353 1.949,1.949c0.494,0.494 1.264,0.582 1.856,0.212c0.661,-0.414 1.515,-0.947 2.14,-1.338c0.225,-0.141 0.496,-0.186 0.755,-0.126c0.258,0.059 0.482,0.219 0.623,0.444c0.408,0.653 0.972,1.556 1.392,2.227c0.345,0.552 1.005,0.818 1.636,0.661c0.522,-0.131 1.155,-0.289 1.699,-0.425c0.299,-0.075 0.616,-0.008 0.858,0.182c0.243,0.189 0.385,0.48 0.385,0.788l0,11.719l-1.514,4.541l-2.359,-0.158c-1.68,0.6 -7.577,2.646 -7.579,2.646c-1.696,0.144 -3.401,0.144 -5.096,0c-0.004,0 -5.896,-2.045 -7.579,-2.646l-2.359,0.158l-1.514,-4.541Z" style="fill:#ec7235"/><path d="M3,20l0,-8.719l28,0l0,8.719l-1.514,4.541l-2.359,0.842c-6.549,2.339 -13.705,2.339 -20.254,0l-2.359,-0.842l-1.514,-4.541Z" style="fill:none"/><clipPath id="_clip1"><path d="M3,20l0,-8.719l28,0l0,8.719l-1.514,4.541l-2.359,0.842c-6.549,2.339 -13.705,2.339 -20.254,0l-2.359,-0.842l-1.514,-4.541Z"/></clipPath><g clip-path="url(#_clip1)"><path d="M21,31l0,-1.158c0,-2.766 2.06,-5.099 4.804,-5.443c1.699,-0.212 3.196,-0.399 3.196,-0.399l4,-8l0,8c0,1.857 -0.738,3.637 -2.05,4.95c-1.313,1.313 -3.093,2.05 -4.95,2.05l-5,0Z" style="fill:none;stroke:#a53a0c;stroke-width:4px;stroke-linecap:square"/><path d="M13,31l0,-1.158c0,-2.766 -2.06,-5.099 -4.804,-5.443c-1.699,-0.212 -3.196,-0.399 -3.196,-0.399l-4,-8l0,8c0,1.857 0.738,3.637 2.05,4.95c1.313,1.313 3.093,2.05 4.95,2.05l5,0Z" style="fill:none;stroke:#a53a0c;stroke-width:4px;stroke-linecap:square"/></g><g><path d="M21.064,29c0.369,-2.385 2.279,-4.293 4.74,-4.601c1.699,-0.212 3.196,-0.399 3.196,-0.399l2,-4l0,4c0,3.866 -3.134,7 -7,7c-1.68,0 -3,0 -3,0l0,-1l0.481,-0.585l-0.417,-0.415Z" style="fill:#ec7235"/><path d="M21.064,29l0.208,0c0.466,0 0.913,-0.185 1.243,-0.515c0.387,-0.387 0.931,-0.931 1.411,-1.411c0.688,-0.688 1.62,-1.074 2.592,-1.074l0.482,0c0,0 -0.233,0.467 -0.541,1.081c-0.894,1.789 -2.722,2.919 -4.722,2.919l-0.737,0l0,-0.158c0,-0.286 0.022,-0.567 0.064,-0.842Z" style="fill:#b54b12"/></g><g><path d="M12.936,29c-0.369,-2.385 -2.279,-4.293 -4.74,-4.601c-1.699,-0.212 -3.196,-0.399 -3.196,-0.399l-2,-4l0,4c0,3.866 3.134,7 7,7c1.68,0 3,0 3,0l0,-1l-0.481,-0.585l0.417,-0.415Z" style="fill:#ec7235"/><path d="M12.936,29l-0.208,0c-0.466,0 -0.913,-0.185 -1.243,-0.515c-0.387,-0.387 -0.931,-0.931 -1.411,-1.411c-0.688,-0.688 -1.62,-1.074 -2.592,-1.074l-0.482,0c0,0 0.233,0.467 0.541,1.081c0.894,1.789 2.722,2.919 4.722,2.919l0.737,0l0,-0.158c0,-0.286 -0.022,-0.567 -0.064,-0.842Z" style="fill:#b54b12"/></g><path d="M13.232,22.987c-0.167,0.46 -0.1,0.973 0.181,1.374c0.281,0.4 0.739,0.639 1.229,0.639c1.425,0 3.291,0 4.716,0c0.49,0 0.948,-0.239 1.229,-0.639c0.281,-0.401 0.348,-0.914 0.181,-1.374c-0.134,-0.37 -0.276,-0.759 -0.414,-1.138c-0.513,-1.41 -1.853,-2.349 -3.353,-2.349c-0.001,0 -0.001,0 -0.002,0c-1.5,0 -2.84,0.939 -3.353,2.349c-0.138,0.379 -0.28,0.768 -0.414,1.138Z"/><path d="M17.071,19.501l0.07,0.002l0.07,0.003l0.069,0.005l0.069,0.006l0.069,0.007l0.069,0.009l0.068,0.01l0.067,0.011l0.068,0.013l0.067,0.014l0.067,0.015l0.066,0.016l0.065,0.018l0.066,0.019l0.065,0.02l0.064,0.021l0.064,0.022l0.063,0.024l0.063,0.025l0.062,0.026l0.062,0.027l0.061,0.028l0.061,0.029l0.06,0.031l0.059,0.031l0.059,0.033l0.058,0.034l0.058,0.035l0.056,0.036l0.056,0.037l0.056,0.038l0.054,0.039l0.054,0.04l0.053,0.041l0.053,0.042l0.051,0.043l0.051,0.044l0.05,0.045l0.049,0.046l0.049,0.047l0.047,0.048l0.047,0.048l0.045,0.05l0.045,0.051l0.044,0.051l0.043,0.053l0.042,0.053l0.041,0.054l0.04,0.055l0.039,0.056l0.038,0.056l0.037,0.058l0.036,0.058l0.035,0.059l0.033,0.06l0.033,0.061l0.032,0.061l0.03,0.062l0.029,0.063l0.029,0.064l0.027,0.064l0.025,0.065l0.025,0.066l0.414,1.138l0.015,0.044l0.014,0.043l0.012,0.044l0.011,0.044l0.009,0.044l0.009,0.045l0.006,0.044l0.006,0.045l0.004,0.044l0.003,0.045l0.001,0.045l0,0.044l-0.001,0.045l-0.002,0.044l-0.004,0.045l-0.005,0.044l-0.007,0.044l-0.008,0.044l-0.009,0.044l-0.01,0.043l-0.012,0.043l-0.013,0.043l-0.014,0.043l-0.016,0.042l-0.017,0.041l-0.018,0.041l-0.019,0.041l-0.021,0.04l-0.022,0.04l-0.023,0.039l-0.024,0.039l-0.026,0.038l-0.027,0.037l-0.028,0.036l-0.028,0.035l-0.03,0.034l-0.031,0.033l-0.032,0.032l-0.032,0.031l-0.034,0.031l-0.034,0.029l-0.035,0.027l-0.036,0.027l-0.036,0.026l-0.037,0.025l-0.038,0.023l-0.039,0.022l-0.039,0.022l-0.04,0.02l-0.04,0.018l-0.041,0.018l-0.042,0.016l-0.042,0.016l-0.042,0.013l-0.043,0.013l-0.044,0.011l-0.043,0.011l-0.045,0.008l-0.044,0.008l-0.045,0.006l-0.045,0.005l-0.045,0.003l-0.046,0.002l-0.046,0.001l-4.716,0l-0.046,-0.001l-0.046,-0.002l-0.045,-0.003l-0.045,-0.005l-0.045,-0.006l-0.044,-0.008l-0.045,-0.008l-0.043,-0.011l-0.044,-0.011l-0.043,-0.013l-0.042,-0.013l-0.042,-0.016l-0.042,-0.016l-0.041,-0.018l-0.04,-0.018l-0.04,-0.02l-0.039,-0.022l-0.039,-0.022l-0.038,-0.023l-0.037,-0.025l-0.036,-0.026l-0.036,-0.027l-0.035,-0.027l-0.034,-0.029l-0.034,-0.031l-0.032,-0.031l-0.032,-0.032l-0.031,-0.033l-0.03,-0.034l-0.028,-0.035l-0.028,-0.036l-0.027,-0.037l-0.026,-0.038l-0.024,-0.039l-0.023,-0.039l-0.022,-0.04l-0.021,-0.04l-0.019,-0.041l-0.018,-0.041l-0.017,-0.041l-0.016,-0.042l-0.014,-0.043l-0.013,-0.043l-0.012,-0.043l-0.01,-0.043l-0.009,-0.044l-0.008,-0.044l-0.007,-0.044l-0.005,-0.044l-0.004,-0.045l-0.002,-0.044l-0.001,-0.045l0,-0.044l0.001,-0.045l0.003,-0.045l0.004,-0.044l0.006,-0.045l0.006,-0.044l0.009,-0.045l0.009,-0.044l0.011,-0.044l0.012,-0.044l0.014,-0.043l0.015,-0.044l0.414,-1.138l0.025,-0.066l0.025,-0.065l0.027,-0.064l0.029,-0.064l0.029,-0.063l0.03,-0.062l0.032,-0.061l0.033,-0.061l0.033,-0.06l0.035,-0.059l0.036,-0.058l0.037,-0.058l0.038,-0.056l0.039,-0.056l0.04,-0.055l0.041,-0.054l0.042,-0.053l0.043,-0.053l0.044,-0.051l0.045,-0.051l0.045,-0.05l0.047,-0.048l0.047,-0.048l0.049,-0.047l0.049,-0.046l0.05,-0.045l0.051,-0.044l0.051,-0.043l0.053,-0.042l0.053,-0.041l0.054,-0.04l0.054,-0.039l0.056,-0.038l0.056,-0.037l0.056,-0.036l0.058,-0.035l0.058,-0.034l0.059,-0.033l0.059,-0.031l0.06,-0.031l0.061,-0.029l0.061,-0.028l0.062,-0.027l0.062,-0.026l0.063,-0.025l0.063,-0.024l0.064,-0.022l0.064,-0.021l0.065,-0.02l0.066,-0.019l0.065,-0.018l0.066,-0.016l0.067,-0.015l0.067,-0.014l0.068,-0.013l0.067,-0.011l0.068,-0.01l0.069,-0.009l0.069,-0.007l0.069,-0.006l0.069,-0.005l0.07,-0.003l0.07,-0.002l0.072,-0.001l0.07,0.001Zm-0.123,1l-0.05,0.001l-0.05,0.002l-0.05,0.004l-0.05,0.004l-0.05,0.006l-0.049,0.006l-0.049,0.007l-0.049,0.008l-0.048,0.009l-0.048,0.01l-0.048,0.011l-0.048,0.012l-0.047,0.012l-0.047,0.014l-0.047,0.014l-0.046,0.016l-0.046,0.016l-0.045,0.017l-0.046,0.018l-0.044,0.018l-0.045,0.02l-0.044,0.02l-0.043,0.021l-0.044,0.022l-0.042,0.023l-0.043,0.023l-0.042,0.025l-0.041,0.025l-0.041,0.026l-0.04,0.026l-0.04,0.028l-0.039,0.028l-0.039,0.029l-0.039,0.029l-0.037,0.031l-0.037,0.031l-0.037,0.031l-0.036,0.033l-0.035,0.033l-0.035,0.034l-0.034,0.034l-0.034,0.035l-0.033,0.036l-0.032,0.036l-0.031,0.037l-0.031,0.038l-0.03,0.038l-0.03,0.039l-0.029,0.04l-0.028,0.04l-0.027,0.04l-0.027,0.042l-0.025,0.042l-0.025,0.042l-0.025,0.043l-0.023,0.044l-0.023,0.044l-0.022,0.045l-0.021,0.045l-0.02,0.046l-0.02,0.046l-0.018,0.047l-0.02,0.052l-0.41,1.127l-0.007,0.022l-0.005,0.014l-0.004,0.015l-0.004,0.014l-0.003,0.015l-0.002,0.015l-0.003,0.015l-0.001,0.015l-0.002,0.014l-0.001,0.015l0,0.015l0,0.015l0,0.015l0.001,0.015l0.001,0.015l0.002,0.014l0.002,0.015l0.003,0.015l0.003,0.014l0.003,0.015l0.004,0.014l0.004,0.014l0.005,0.015l0.005,0.014l0.006,0.013l0.006,0.014l0.006,0.014l0.007,0.013l0.008,0.013l0.007,0.013l0.008,0.013l0.009,0.013l0.009,0.012l0.009,0.012l0.01,0.012l0.01,0.011l0.01,0.011l0.011,0.011l0.01,0.01l0.012,0.01l0.011,0.01l0.012,0.009l0.012,0.009l0.012,0.009l0.012,0.008l0.013,0.008l0.013,0.007l0.013,0.007l0.013,0.007l0.014,0.006l0.013,0.006l0.014,0.006l0.014,0.005l0.014,0.004l0.015,0.005l0.014,0.003l0.015,0.004l0.014,0.003l0.015,0.002l0.015,0.002l0.015,0.002l0.015,0.001l0.015,0.001l0.023,0l4.702,0l0.023,0l0.015,-0.001l0.015,-0.001l0.015,-0.002l0.015,-0.002l0.015,-0.002l0.014,-0.003l0.015,-0.004l0.014,-0.003l0.015,-0.005l0.014,-0.004l0.014,-0.005l0.014,-0.006l0.013,-0.006l0.014,-0.006l0.013,-0.007l0.013,-0.007l0.013,-0.007l0.013,-0.008l0.012,-0.008l0.012,-0.009l0.012,-0.009l0.012,-0.009l0.011,-0.01l0.012,-0.01l0.01,-0.01l0.011,-0.011l0.01,-0.011l0.01,-0.011l0.01,-0.012l0.009,-0.012l0.009,-0.012l0.009,-0.013l0.008,-0.013l0.007,-0.013l0.008,-0.013l0.007,-0.013l0.006,-0.014l0.006,-0.014l0.006,-0.013l0.005,-0.014l0.005,-0.015l0.004,-0.014l0.004,-0.014l0.003,-0.015l0.003,-0.014l0.003,-0.015l0.002,-0.015l0.002,-0.014l0.001,-0.015l0.001,-0.015l0,-0.015l0,-0.015l0,-0.015l-0.001,-0.015l-0.002,-0.014l-0.001,-0.015l-0.003,-0.015l-0.002,-0.015l-0.003,-0.015l-0.004,-0.014l-0.004,-0.015l-0.005,-0.014l-0.007,-0.022l-0.41,-1.127l-0.02,-0.052l-0.018,-0.047l-0.02,-0.046l-0.02,-0.046l-0.021,-0.045l-0.022,-0.045l-0.023,-0.044l-0.023,-0.044l-0.025,-0.043l-0.025,-0.042l-0.025,-0.042l-0.027,-0.042l-0.027,-0.04l-0.028,-0.04l-0.029,-0.04l-0.03,-0.039l-0.03,-0.038l-0.031,-0.038l-0.031,-0.037l-0.032,-0.036l-0.033,-0.036l-0.034,-0.035l-0.034,-0.034l-0.035,-0.034l-0.035,-0.033l-0.036,-0.033l-0.037,-0.031l-0.037,-0.031l-0.037,-0.031l-0.039,-0.029l-0.039,-0.029l-0.039,-0.028l-0.04,-0.028l-0.04,-0.026l-0.041,-0.026l-0.041,-0.025l-0.042,-0.025l-0.043,-0.023l-0.042,-0.023l-0.044,-0.022l-0.043,-0.021l-0.044,-0.02l-0.045,-0.02l-0.044,-0.018l-0.046,-0.018l-0.045,-0.017l-0.046,-0.016l-0.046,-0.016l-0.047,-0.014l-0.047,-0.014l-0.047,-0.012l-0.048,-0.012l-0.048,-0.011l-0.048,-0.01l-0.048,-0.009l-0.049,-0.008l-0.049,-0.007l-0.049,-0.006l-0.05,-0.006l-0.05,-0.004l-0.05,-0.004l-0.05,-0.002l-0.05,-0.001l-0.052,-0.001l-0.052,0.001Z"/><g><path d="M23.876,13.056c-1.937,-0.341 -3.231,0.919 -3.601,2.373c-0.448,1.763 -0.375,3.18 0.418,4.218c0.872,1.142 2.33,1.688 3.605,1.137c1.724,-0.745 2.202,-1.752 2.202,-3.813c0,-2.06 -0.921,-3.614 -2.624,-3.915Z"/><path d="M23.5,14.772c0,-0.331 -0.132,-0.649 -0.366,-0.883c-0.235,-0.235 -0.552,-0.367 -0.884,-0.367c-0.001,0 -0.001,0 -0.002,0c-0.331,0 -0.648,0.132 -0.882,0.366c-0.235,0.234 -0.366,0.551 -0.366,0.882c0,0.32 0,0.663 0,0.982c0,0.331 0.131,0.648 0.366,0.882c0.234,0.235 0.551,0.366 0.882,0.366c0.001,0 0.001,0 0.002,0c0.332,0 0.649,-0.132 0.884,-0.366c0.234,-0.235 0.366,-0.552 0.366,-0.884c0,-0.318 0,-0.66 0,-0.978Z" style="fill:#e5e5e5"/></g><g><path d="M11.376,13.056c-1.937,-0.341 -3.231,0.919 -3.601,2.373c-0.448,1.763 -0.375,3.18 0.418,4.218c0.872,1.142 2.33,1.688 3.605,1.137c1.724,-0.745 2.202,-1.752 2.202,-3.813c0,-2.06 -0.921,-3.614 -2.624,-3.915Z"/><path d="M11,14.772c0,-0.331 -0.132,-0.649 -0.366,-0.883c-0.235,-0.235 -0.552,-0.367 -0.884,-0.367c-0.001,0 -0.001,0 -0.002,0c-0.331,0 -0.648,0.132 -0.882,0.366c-0.235,0.234 -0.366,0.551 -0.366,0.882c0,0.32 0,0.663 0,0.982c0,0.331 0.131,0.648 0.366,0.882c0.234,0.235 0.551,0.366 0.882,0.366c0.001,0 0.001,0 0.002,0c0.332,0 0.649,-0.132 0.884,-0.366c0.234,-0.235 0.366,-0.552 0.366,-0.884c0,-0.318 0,-0.66 0,-0.978Z" style="fill:#e5e5e5"/></g><circle cx="28" cy="14" r="2" style="fill:#fff"/><path d="M30,4c0,-0.552 -0.448,-1 -1,-1c-0.611,0 -1.389,0 -2,0c-0.552,0 -1,0.448 -1,1c0,1.435 0,4.065 0,5.5c0,0.552 0.448,1 1,1c0.611,0 1.389,0 2,0c0.552,0 1,-0.448 1,-1c0,-1.435 0,-4.065 0,-5.5Z" style="fill:#fff"/></g></svg>
